<?xml version="1.0" standalone="no"?><!DOCTYPE svg PUBLIC "-//W3C//DTD SVG 1.1//EN" "http://www.w3.org/Graphics/SVG/1.1/DTD/svg11.dtd"><svg t="1676384119899" class="icon" viewBox="0 0 1024 1024" version="1.1" xmlns="http://www.w3.org/2000/svg" p-id="6512" xmlns:xlink="http://www.w3.org/1999/xlink" width="200" height="200"><path d="M512 512m-472.8 0a472.8 472.8 0 1 0 945.6 0 472.8 472.8 0 1 0-945.6 0Z" fill="#FFE0B2" p-id="6513"></path><path d="M512 999.542857C243.2 999.542857 24.457143 780.8 24.457143 512S243.2 24.457143 512 24.457143 999.542857 243.2 999.542857 512 780.8 999.542857 512 999.542857z m0-945.485714C259.428571 54.057143 54.057143 259.428571 54.057143 512S259.428571 969.942857 512 969.942857 969.942857 764.571429 969.942857 512 764.571429 54.057143 512 54.057143z" fill="#1C4F69" p-id="6514"></path><path d="M512 512m-433.371429 0a433.371429 433.371429 0 1 0 866.742858 0 433.371429 433.371429 0 1 0-866.742858 0Z" fill="#FFFFFF" p-id="6515"></path><path d="M519.542857 519.542857m-425.828571 0a425.828571 425.828571 0 1 0 851.657143 0 425.828571 425.828571 0 1 0-851.657143 0Z" fill="#BBDEFB" p-id="6516"></path><path d="M512 949.6C270.742857 949.6 74.4 753.257143 74.4 512S270.742857 74.4 512 74.4 949.6 270.742857 949.6 512 753.257143 949.6 512 949.6z m0-866.857143C275.314286 82.742857 82.742857 275.314286 82.742857 512S275.314286 941.257143 512 941.257143 941.257143 748.685714 941.257143 512 748.685714 82.742857 512 82.742857z" fill="#1C4F69" p-id="6517"></path><path d="M512 512m-344.114286 0a344.114286 344.114286 0 1 0 688.228572 0 344.114286 344.114286 0 1 0-688.228572 0Z" fill="#FFFFFF" p-id="6518"></path><path d="M512 870.857143c-197.828571 0-358.857143-161.028571-358.857143-358.857143s161.028571-358.857143 358.857143-358.857143 358.857143 161.028571 358.857143 358.857143-161.028571 358.857143-358.857143 358.857143z m0-688.228572c-181.6 0-329.371429 147.771429-329.371429 329.371429 0 181.6 147.771429 329.371429 329.371429 329.371429 181.6 0 329.371429-147.771429 329.371429-329.371429 0-181.6-147.771429-329.371429-329.371429-329.371429zM142.857143 344c-0.571429 0-1.142857-0.114286-1.714286-0.342857-2.057143-1.028571-2.971429-3.428571-2.057143-5.485714 40.571429-87.314286 111.314286-157.942857 198.971429-198.971429 2.057143-0.914286 4.571429-0.114286 5.485714 2.057143 1.028571 2.057143 0.114286 4.571429-2.057143 5.485714-85.942857 40.114286-155.2 109.371429-194.971428 194.857143-0.571429 1.6-2.057143 2.4-3.657143 2.4z" fill="#1C4F69" p-id="6519"></path><path d="M154.285714 385.828571c-0.457143 0-1.028571-0.114286-1.485714-0.228571-2.171429-0.8-3.314286-3.2-2.514286-5.371429 22.971429-62.971429 62.285714-119.2 113.828572-162.514285 1.828571-1.485714 4.457143-1.257143 5.942857 0.457143 1.485714 1.828571 1.257143 4.457143-0.457143 5.942857-50.4 42.4-88.8 97.371429-111.314286 158.971428-0.571429 1.714286-2.171429 2.742857-4 2.742857zM137.028571 450.857143c-0.228571 0-0.457143 0-0.685714-0.114286-2.285714-0.457143-3.885714-2.628571-3.428571-4.914286 1.6-9.371429 3.657143-18.857143 5.942857-28.114285 0.571429-2.285714 2.857143-3.657143 5.142857-3.085715s3.657143 2.857143 3.085714 5.142858c-2.285714 9.028571-4.228571 18.285714-5.828571 27.428571-0.457143 2.171429-2.171429 3.657143-4.228572 3.657143z" fill="#1C4F69" p-id="6520"></path><path d="M684.114286 885.142857c-1.6 0-3.085714-0.914286-3.771429-2.4-0.914286-2.057143-0.114286-4.571429 2.057143-5.485714 85.942857-40.114286 155.2-109.371429 194.971429-194.857143 1.028571-2.057143 3.428571-2.971429 5.485714-2.057143 2.057143 0.914286 2.971429 3.428571 2.057143 5.485714-40.571429 87.314286-111.314286 157.942857-198.971429 198.971429-0.685714 0.228571-1.257143 0.342857-1.828571 0.342857z" fill="#1C4F69" p-id="6521"></path><path d="M757.142857 807.314286c-1.257143 0-2.4-0.457143-3.2-1.485715-1.485714-1.828571-1.257143-4.457143 0.457143-5.942857 50.4-42.4 88.8-97.485714 111.314286-158.971428 0.8-2.171429 3.2-3.314286 5.371428-2.514286 2.171429 0.8 3.314286 3.2 2.514286 5.371429-22.971429 62.971429-62.285714 119.2-113.828571 162.514285-0.685714 0.685714-1.714286 1.028571-2.628572 1.028572zM881.142857 609.371429c-0.342857 0-0.685714 0-1.028571-0.114286-2.285714-0.571429-3.657143-2.857143-3.085715-5.142857 2.285714-9.028571 4.228571-18.285714 5.828572-27.428572 0.342857-2.285714 2.628571-3.771429 4.914286-3.428571 2.285714 0.457143 3.885714 2.628571 3.428571 4.914286-1.6 9.371429-3.657143 18.857143-5.942857 28.114285-0.571429 1.828571-2.285714 3.085714-4.114286 3.085715z" fill="#1C4F69" p-id="6522"></path><path d="M535.542857 451.542857c-0.457143 0-0.914286-0.114286-1.485714-0.228571-2.171429-0.8-3.314286-3.2-2.514286-5.371429l84.114286-231.2c0.8-2.171429 3.2-3.314286 5.371428-2.514286 2.171429 0.8 3.314286 3.2 2.514286 5.371429L539.428571 448.8c-0.571429 1.714286-2.171429 2.742857-3.885714 2.742857zM571.657143 481.828571c-1.485714 0-2.857143-0.8-3.657143-2.057142-1.142857-2.057143-0.457143-4.571429 1.6-5.714286l213.028571-122.971429c2.057143-1.142857 4.571429-0.457143 5.714286 1.485715 1.142857 2.057143 0.457143 4.571429-1.6 5.714285L573.714286 481.257143c-0.685714 0.342857-1.371429 0.571429-2.057143 0.571428zM822.057143 570.857143c-0.228571 0-0.457143 0-0.685714-0.114286l-242.285715-42.742857c-2.285714-0.457143-3.771429-2.628571-3.428571-4.914286 0.457143-2.285714 2.628571-3.885714 4.914286-3.428571l242.285714 42.742857c2.285714 0.457143 3.771429 2.628571 3.428571 4.914286-0.457143 2.171429-2.171429 3.542857-4.228571 3.542857zM714.4 757.371429c-1.257143 0-2.4-0.457143-3.2-1.485715L553.028571 567.428571c-1.485714-1.828571-1.257143-4.457143 0.571429-5.942857 1.828571-1.485714 4.457143-1.257143 5.942857 0.571429l158.057143 188.457143c1.485714 1.828571 1.257143 4.457143-0.571429 5.942857-0.685714 0.571429-1.714286 0.914286-2.628571 0.914286zM512 831.085714c-2.285714 0-4.228571-1.828571-4.228571-4.228571V580.914286c0-2.285714 1.942857-4.228571 4.228571-4.228572s4.228571 1.828571 4.228571 4.228572v245.942857c0 2.285714-1.942857 4.228571-4.228571 4.228571zM309.6 757.371429c-0.914286 0-1.942857-0.342857-2.742857-1.028572-1.828571-1.485714-2.057143-4.114286-0.571429-5.942857l158.057143-188.457143c1.485714-1.828571 4.228571-2.057143 5.942857-0.571428 1.828571 1.485714 2.057143 4.114286 0.571429 5.942857l-157.942857 188.571428c-0.914286 1.028571-2.057143 1.485714-3.314286 1.485715zM201.942857 570.857143c-2.057143 0-3.771429-1.485714-4.114286-3.542857-0.457143-2.285714 1.142857-4.457143 3.428572-4.914286l242.285714-42.742857c2.285714-0.457143 4.457143 1.142857 4.914286 3.428571 0.457143 2.285714-1.142857 4.457143-3.428572 4.914286l-242.285714 42.742857c-0.342857 0.114286-0.571429 0.114286-0.8 0.114286zM452.342857 481.828571c-0.685714 0-1.485714-0.228571-2.057143-0.571428L237.257143 358.285714c-2.057143-1.142857-2.742857-3.771429-1.6-5.714285 1.142857-2.057143 3.771429-2.742857 5.714286-1.485715l213.028571 122.971429c2.057143 1.142857 2.742857 3.771429 1.6 5.714286-0.8 1.257143-2.171429 2.057143-3.657143 2.057142zM488.457143 451.542857c-1.714286 0-3.314286-1.028571-4-2.742857l-84.114286-231.2c-0.8-2.171429 0.342857-4.571429 2.514286-5.371429 2.171429-0.8 4.571429 0.342857 5.371428 2.514286l84.114286 231.2c0.8 2.171429-0.342857 4.571429-2.514286 5.371429-0.457143 0.114286-0.914286 0.228571-1.371428 0.228571z" fill="#1C4F69" p-id="6523"></path><path d="M512 567.314286c-30.514286 0-55.314286-24.8-55.314286-55.314286s24.8-55.314286 55.314286-55.314286 55.314286 24.8 55.314286 55.314286-24.8 55.314286-55.314286 55.314286z m0-81.142857c-14.171429 0-25.828571 11.542857-25.828571 25.828571s11.542857 25.828571 25.828571 25.828571 25.828571-11.542857 25.828571-25.828571-11.657143-25.828571-25.828571-25.828571z" fill="#1C4F69" p-id="6524"></path></svg>